# xmcd
#
# Track frame offsets: 
#        150
#        32859
#        44661
#        61959
#        83333
#        98016
#        113215
#        141440
#        162600
#        178331
#        191206
#        228502
#
# Disc length: 3239 seconds
#
# Revision: 1
# Processed by: cddbd v1.5.2PL0 Copyright (c) Steve Scherf et al.
# Submitted via: ExactAudioCopyFreeDBPlugin 1.0
#
DISCID=ac0ca50c
DTITLE=Lukas Nelson and Promise of the Real - Lukas Nelson and Promise of 
DTITLE=the Real
DYEAR=2017
DGENRE=Country
TTITLE0=Set Me Down on a Cloud
TTITLE1=Die Alone
TTITLE2=Fool Me Once
TTITLE3=Just Outside of Austin
TTITLE4=Carolina
TTITLE5=Runnin’ Shine
TTITLE6=Find Yourself
TTITLE7=Four Letter Word
TTITLE8=High Times
TTITLE9=Breath of My Baby
TTITLE10=Forget about Georgia
TTITLE11=If I Started Over
EXTD=
EXTT0=
EXTT1=
EXTT2=
EXTT3=
EXTT4=
EXTT5=
EXTT6=
EXTT7=
EXTT8=
EXTT9=
EXTT10=
EXTT11=
PLAYORDER=
